<?xml version="1.0" encoding="utf-8"?>
<!-- Generator: Adobe Illustrator 22.0.1, SVG Export Plug-In . SVG Version: 6.00 Build 0)  -->
<svg version="1.1" id="Layer_1" xmlns="http://www.w3.org/2000/svg" xmlns:xlink="http://www.w3.org/1999/xlink" x="0px" y="0px"
	 viewBox="0 0 427 289" style="enable-background:new 0 0 427 289;" xml:space="preserve">
<style type="text/css">
	.st0{fill:#E3E5FF;}
	.st1{fill:#FFFFFF;}
	.st2{fill:#E6E6E6;}
	.st3{fill:#3943B3;}
	.st4{fill:none;stroke:#FFFFFF;stroke-miterlimit:10;}
	.st5{fill:#FFB939;}
	.st6{fill:none;stroke:#B3B3B3;stroke-miterlimit:10;}
	.st7{fill:none;stroke:#B3B3B3;stroke-miterlimit:10;stroke-dasharray:6.8063,6.8063;}
	.st8{fill:#FFA320;}
	.st9{fill:#EB4334;}
	.st10{fill:#FFC69A;}
	.st11{fill:#DAA184;}
	.st12{fill:#411809;}
	.st13{fill:#4753DE;}
	.st14{fill:#FFB780;}
	.st15{opacity:0.1;}
	.st16{fill:none;stroke:#3943B3;stroke-width:2;stroke-miterlimit:10;}
	.st17{fill:none;stroke:#3943B3;stroke-width:2;stroke-linecap:round;stroke-miterlimit:10;}
	.st18{fill:none;stroke:#3943B3;stroke-linecap:round;stroke-miterlimit:10;}
	.st19{fill:none;stroke:#3943B3;stroke-miterlimit:10;}
	.st20{fill:none;}
	.st21{fill:#B3B3B3;}
</style>
<g>
	<g>
		<g>
			<path class="st0" d="M107.5,89.7c34.7-27.7,79.5-18,81.4-17.6c28.4,6.6,27.1,21.4,58,32.5c45.1,16.2,68.8-7.8,94.7,10.6
				c20.2,14.4,28.7,45.3,22.9,68.6C353.7,227,292,252,245.3,246.2c-44.6-5.6-56.4-37-105.9-36.2c-32,0.5-42.9,13.9-55.3,5.3
				C60.2,198.9,64,124.4,107.5,89.7z"/>
			<path class="st1" d="M309.9,236.5H125.2c-5.3,0-9.6-4.3-9.6-9.6V108.3c0-5.3,4.3-9.6,9.6-9.6h184.7c5.3,0,9.6,4.3,9.6,9.6v118.6
				C319.5,232.2,315.2,236.5,309.9,236.5z"/>
			<path class="st2" d="M311.6,99.1H124.7c-4.9-0.2-8.9,3.1-8.7,8.8v3l203.1-0.2v-3.5C319.1,103,315.7,99.1,311.6,99.1z"/>
			<g>
				<path class="st3" d="M201.8,198.1h-67.2c-1.3,0-2.3-1-2.3-2.3V175c0-1.3,1-2.3,2.3-2.3h67.2c1.3,0,2.3,1,2.3,2.3v20.8
					C204.1,197,203.1,198.1,201.8,198.1z"/>
				<path class="st1" d="M153.6,185.7c0,3.8-3.1,6.9-6.9,6.9c-3.8,0-6.9-3.1-6.9-6.9c0-3.8,3.1-6.9,6.9-6.9
					C150.5,178.8,153.6,181.9,153.6,185.7z"/>
				<g>
					<line class="st4" x1="159.4" y1="186.5" x2="195.8" y2="186.5"/>
					<line class="st4" x1="159.4" y1="181.8" x2="176.8" y2="181.8"/>
					<line class="st4" x1="159.4" y1="190.8" x2="195.8" y2="190.8"/>
				</g>
			</g>
			<path class="st5" d="M308.1,125.9v-3.5c0-2.2-1.8-4-4-4h-75.6c-2.2,0-4,1.8-4,4v33.9L308.1,125.9z"/>
			
				<rect x="245.6" y="120.8" transform="matrix(0.9286 -0.3711 0.3711 0.9286 -32.7539 103.7428)" class="st5" width="15.3" height="32.3"/>
			<path class="st6" d="M302.8,215.8h-73.1c-2.9,0-5.2-2.3-5.2-5.2v-86.8c0-2.9,2.3-5.2,5.2-5.2h73.1c2.9,0,5.2,2.3,5.2,5.2v86.8
				C308.1,213.5,305.7,215.8,302.8,215.8z"/>
			
				<rect x="240.4" y="131.8" transform="matrix(0.9286 -0.3711 0.3711 0.9286 -37.1989 102.6011)" class="st5" width="15.3" height="32.3"/>
			
				<rect x="232.4" y="143.8" transform="matrix(0.9286 -0.3711 0.3711 0.9286 -39.0663 99.8764)" class="st5" width="15.3" height="15.3"/>
			
				<rect x="287.9" y="124.9" transform="matrix(0.9286 -0.3711 0.3711 0.9286 -29.2676 119.3526)" class="st5" width="15.3" height="21.7"/>
			<rect x="132.5" y="118.5" class="st2" width="71.6" height="10.4"/>
			<rect x="132.5" y="204.6" class="st2" width="71.6" height="4"/>
			<rect x="132.5" y="212.1" class="st2" width="71.6" height="4"/>
			<g>
				<path class="st7" d="M201.8,166.1h-67.2c-1.3,0-2.3-1-2.3-2.3V143c0-1.3,1-2.3,2.3-2.3h67.2c1.3,0,2.3,1,2.3,2.3v20.8
					C204.1,165.1,203.1,166.1,201.8,166.1z"/>
			</g>
			<g>
				<circle class="st8" cx="301.1" cy="105.6" r="1.7"/>
				<circle class="st9" cx="306.7" cy="105.6" r="1.7"/>
				<circle class="st3" cx="312.2" cy="105.6" r="1.7"/>
			</g>
			<path class="st1" d="M292,108.3H124.2c-1.8,0-3.3-1.5-3.3-3.3l0,0c0-1.8,1.5-3.3,3.3-3.3H292c1.8,0,3.3,1.5,3.3,3.3l0,0
				C295.3,106.8,293.9,108.3,292,108.3z"/>
			<path class="st6" d="M309.9,236.5H125.2c-5.3,0-9.6-4.3-9.6-9.6V108.3c0-5.3,4.3-9.6,9.6-9.6h184.7c5.3,0,9.6,4.3,9.6,9.6v118.6
				C319.5,232.2,315.2,236.5,309.9,236.5z"/>
			<g>
				<path class="st3" d="M174.9,166.1h-67.2c-1.3,0-2.3-1-2.3-2.3V143c0-1.3,1-2.3,2.3-2.3h67.2c1.3,0,2.3,1,2.3,2.3v20.8
					C177.2,165.1,176.2,166.1,174.9,166.1z"/>
				<path class="st1" d="M126.7,153.7c0,3.8-3.1,6.9-6.9,6.9c-3.8,0-6.9-3.1-6.9-6.9c0-3.8,3.1-6.9,6.9-6.9
					C123.6,146.8,126.7,149.9,126.7,153.7z"/>
				<g>
					<line class="st4" x1="132.5" y1="154.5" x2="168.9" y2="154.5"/>
					<line class="st4" x1="132.5" y1="149.8" x2="149.9" y2="149.8"/>
					<line class="st4" x1="132.5" y1="158.8" x2="168.9" y2="158.8"/>
				</g>
			</g>
			<g>
				<g>
					<path class="st8" d="M97.8,246.9c0,0,4.5,1.3,6.7,2.5c1.8,1,2,1.8-0.2,1.8c-2.8,0-6.1-0.1-8.1-0.4c-1.4-0.2-0.8-3.4-0.6-3.9
						L97.8,246.9z"/>
					<polygon class="st10" points="97.4,246.9 97.8,245.1 95.5,245.4 95.6,246.9 					"/>
					<path class="st3" d="M105.8,250.8c-2.4-0.1-7.5-0.3-8.9-0.6c-0.8-0.2-1.3-0.5-1.7-0.9c0,0.8,0.3,1.4,0.9,1.5
						c2,0.3,5.3,0.4,8.1,0.4C105.2,251.2,105.7,251,105.8,250.8z"/>
					<path class="st11" d="M87.1,185.7c0,0-0.6-2.7,4.2-6.2c4.7-3.5,7.3-6.1,7.3-6.1L103,158l1.6,0.7c0,0,0.1,12.2-0.6,15.8
						C103.3,178.1,88.3,193.7,87.1,185.7z"/>
					<path class="st8" d="M99.4,169.6l5.1,0.7l-0.2,4.2c0,0-7.4,11.6-12.3,13.4c-4.8,1.8-7.7-1-6.6-3c1.2-2,12.3-11.4,12.3-11.4
						L99.4,169.6z"/>
					
						<rect x="100.5" y="166.7" transform="matrix(-0.1559 0.9878 -0.9878 -0.1559 285.3044 95.7487)" class="st5" width="2.5" height="6.1"/>
					<path class="st11" d="M104.5,162.2c0,0-2.9-7.2-2.1-8c0,0,2.7,4.6,3.6,6.6"/>
					<g>
						<path class="st5" d="M69.9,242.5c0,0,3.2,3.4,4.4,5.7c1,1.8,0.8,2.6-1.1,1.4c-2.4-1.5-5.2-3.3-6.7-4.6c-1-0.9,1.1-3.3,1.6-3.6
							L69.9,242.5z"/>
						<polygon class="st10" points="69.6,242.3 70.9,241 68.7,240 68.1,241.3 						"/>
					</g>
					<g>
						<path class="st3" d="M96.3,203.8l-9.3-5.2c0,0,1.6,19.5,7.5,28.1c0,0,0,15.7,1.1,19.1l2.2-0.1c0,0,3.3-17.9,3-20.7
							C100.2,219.9,99.6,212.4,96.3,203.8z"/>
					</g>
					<g>
						<path class="st12" d="M86.5,167.9c0,0-3.7,1.8-4,8.6c-0.3,6.8-1.5,7.1-1.5,7.1s5,2.9,10.6,0L86.5,167.9z"/>
						<path class="st10" d="M90.9,168.5c1.5,1.4,2.2,3.6,2.3,5.6c0.1,2.3-3.4,2.6-5.4,1.5c-1.7-1-3-3.2-2.7-5
							C85.6,168.2,89,166.7,90.9,168.5z"/>
						<path class="st10" d="M88.9,171.3l-3.6,0.6l1.4,8.8c0.2,1.3,1.4,2.1,2.6,1.9l0,0c1.4-0.2,2.2-1.6,1.9-2.9L88.9,171.3z"/>
						<path class="st12" d="M89.3,168.1c0,0,0.9,4.9-4,6.1c-3.4,0.8-3.4-7.7,1.5-7.9c6.8-0.3,5.3,3.7,5.3,3.7S90.4,167.6,89.3,168.1
							z"/>
						<polygon class="st11" points="90.4,177 87.7,175.7 90.2,176.2 						"/>
					</g>
					<path class="st3" d="M94.5,199.8l-11.3,3c0,0-3.2,4.3-2,21c0,0-9.8,8.3-12.6,16.3l1.8,1.2c0,0,13.9-12.4,15.8-14.5
						C88.6,224.3,93.2,216,94.5,199.8z"/>
					<path class="st5" d="M93.3,180.6c-0.2-1-1-1.8-1.9-2.2c-2.1-0.8-7.2-0.8-7.2,6.1c-0.1,13.5-0.9,18.3-0.9,18.3s2.7,2.4,13,1.1
						l-1.4-8.5l1.2-2.6c0.8-2.1,0.7-4.4-0.2-6.4L93.3,180.6z"/>
					<path class="st10" d="M89.2,186.3c0,0-0.6-2.7,4.2-6.2c4.7-3.5,7.3-6.1,7.3-6.1l4.5-15.5l1.6,0.7c0,0,0.1,12.2-0.6,15.8
						C105.3,178.6,90.4,194.3,89.2,186.3z"/>
					<path class="st10" d="M104.7,160c0,0-1-4.4-0.2-5.2c0,0,0.8,1.8,1.7,3.8c0.3,0.6,2.9,2.5,1.5,2.3
						C106.4,160.6,104.7,160,104.7,160z"/>
					<path class="st10" d="M91.6,169.4c0,0,1.1,1.2,2,1.4c0,0-0.2,0.8-0.9,1.2L91.6,169.4z"/>
					<path class="st3" d="M74.8,250c-2-1.3-6.3-4.2-7.2-5.2c-0.6-0.6-0.8-1.1-1-1.6c-0.4,0.7-0.5,1.4-0.1,1.7
						c1.5,1.3,4.3,3.1,6.7,4.6C74,250,74.5,250.2,74.8,250z"/>
					<path class="st10" d="M68.2,241.4c0,0,2.5,4.3,3.6,3.2l-1.8-2.7L68.2,241.4z"/>
					<path class="st10" d="M95.9,246.8c0,0,4.3,2.4,4.6,0.9l-3-1.3L95.9,246.8z"/>
					<path class="st5" d="M101.8,169.8l4.6,0.9l-0.3,5.4c0,0-6.9,10.4-11.7,12.2c-4.8,1.8-7.7-1-6.6-3c1.2-2,12.3-11.4,12.3-11.4
						L101.8,169.8z"/>
					
						<rect x="102.9" y="166.9" transform="matrix(-0.1559 0.9878 -0.9878 -0.1559 288.3048 93.5674)" class="st5" width="2.5" height="6.1"/>
					<path class="st3" d="M96.3,203.8l1.2,3.4l-7.8,8.6l0.7-11.6C90.4,204.2,92.9,204.3,96.3,203.8z"/>
					<path class="st13" d="M87.2,222.6c-1.6,1.6-2.1,2.4-2.3,3.3c-0.2,0.8,0,0.9-0.2,1.4c-0.6,1.3-2.3,1-4.4,2
						c-1.5,0.7-2.5,1.8-4.5,4c-1,1.1-0.9,1.2-2.5,3.2c-1.9,2.4-3.1,3.6-3.6,4.4l0.8,0.5c0,0,13.9-12.4,15.8-14.5
						c1-1.1,2.5-3.4,4-7.1C90,219.7,89.1,220.7,87.2,222.6z"/>
					
						<rect x="94.7" y="244.6" transform="matrix(-1 -1.224647e-16 1.224647e-16 -1 193.1307 490.5544)" class="st3" width="3.6" height="1.4"/>
					<rect x="67.8" y="239.8" transform="matrix(-0.866 -0.5 0.5 -0.866 9.6036 483.6124)" class="st3" width="3.6" height="1.4"/>
				</g>
				<g>
					<g>
						<path class="st5" d="M82.3,173.4l8.3-6.6c-1.8-2.3-5.1-2.7-7.4-0.9C80.9,167.8,80.5,171.1,82.3,173.4"/>
					</g>
					<path class="st8" d="M85,165c-0.6,0.2-1.2,0.5-1.8,0.9c-2.3,1.8-2.7,5.1-0.9,7.4l2.2-1.7C83,169.6,83.3,166.8,85,165z"/>
					
						<rect x="81" y="168.8" transform="matrix(0.8015 -0.598 0.598 0.8015 -84.0937 85.7668)" class="st8" width="12.3" height="1.5"/>
				</g>
				<path class="st3" d="M96.1,192.7c0.7-1.8,0.7-3.7,0.1-5.5c-3.1,1.1-5.8,0.9-7.9,0.3c-1.7-6.1,1-8.8,1.7-9.4
					c-0.7-0.1-1.4,0-2.2,0.2c-1.1,1.5-2.2,4.3-1.2,8.6c-1.6-0.8-2.5-1.6-2.5-1.6l0,0c-0.1,12.9-1.3,18.2-1.3,18.2s3,1.8,13.3,0.5
					l-1.4-8.5L96.1,192.7z"/>
				<path class="st13" d="M100.7,225.1c-0.6-5.2-1.1-12.8-4.5-21.3l-1.4-8.5l1.2-2.6c0.7-1.8,0.7-3.7,0.1-5.5
					c-0.5,0.2-1.1,0.3-1.6,0.5c0.1,1.5,0.2,3.5-0.8,5.6c-0.3,0.7-0.9,1.6-1.1,3c-0.3,1.7,0.1,3,0.3,3.8c1.2,4.5,2.3,7.8,2.3,7.8
					c1.6,4.5,2.4,6.8,2.5,7.9c0.2,4.1-1.7,6.4-0.1,8.6c0.8,1,1.8,1.3,1.9,2.5c0.1,1-0.9,1.4-1.5,2.7c-0.9,1.8-0.1,3.1,0,5.7
					c0.1,2.7-0.6,3-1,5.9c-0.2,1.5-0.2,3.3,0,4.8l0.6,0C97.7,245.8,101,228,100.7,225.1z"/>
			</g>
			<g>
				<g>
					<polygon class="st9" points="156,248.9 138.2,248.9 144,219.6 150.2,219.6 					"/>
					<rect x="134" y="247.5" class="st9" width="25.4" height="3"/>
				</g>
				<polygon class="st9" points="156,248.9 138.2,248.9 144,219.6 150.2,219.6 				"/>
				<polygon class="st1" points="141.5,232 152.7,232 151.8,227.4 142.5,227.4 				"/>
				<polygon class="st1" points="139.4,242.8 154.8,242.8 153.9,238.2 140.3,238.2 				"/>
			</g>
			<g>
				<g>
					<g>
						<path class="st3" d="M347.1,244.6c0,0-7,3.8-9.3,3.9c-2.3,0-0.6,1,1.9,1.2c2,0.2,5.9-0.4,8.3-0.8c0.2,0,0.7-0.6,0.7-0.6
							c0.2,0.5,0.2,0.5,0.2,0.5c0.2,0,1.2-0.1,1.2-0.1c0.1-1.2-0.5-4.1-0.5-4.1L347.1,244.6z"/>
						<g>
							<polygon class="st14" points="347.1,244.6 347.2,242.7 349.7,242.8 349.6,244.6 							"/>
						</g>
					</g>
				</g>
				<path class="st3" d="M347.1,188.7l8.3,1.4c0,0-2.5,22.1-5.1,30.7c0,0,1.7,14.8-0.1,22.8l-3.3,0.2c0,0-2.8-18.9-3.5-22.1
					C342.4,217.8,343.5,208.5,347.1,188.7z"/>
				<polygon class="st3" points="346.1,241.9 346.3,244 350.4,243.9 350.6,242 				"/>
				<g>
					<g>
						<g>
							<path class="st3" d="M356.9,245.3c0,0-7,3.8-9.3,3.9c-2.3,0-0.6,1,1.9,1.2c2,0.2,5.9-0.4,8.3-0.8c0.2,0,0.7-0.6,0.7-0.6
								c0.2,0.5,0.2,0.5,0.2,0.5c0.2,0,1.2-0.1,1.2-0.1c0.1-1.2-0.5-4.1-0.5-4.1L356.9,245.3z"/>
							<g>
								<polygon class="st14" points="356.9,245.3 357,243.5 359.5,243.6 359.4,245.3 								"/>
							</g>
						</g>
					</g>
					<path class="st3" d="M351.1,190l8.8,6.8c0,0,2.9,4.3-1.5,24.2c0,0,3.8,11,1.4,23.3l-3.2,0.5c0,0-3.9-20.3-5-23.4
						C350.2,217.6,349.1,207.3,351.1,190z"/>
					<polygon class="st3" points="355.6,242.8 356,244.9 360.1,244.5 360.2,242.5 					"/>
					<polygon class="st3" points="350.4,196.7 345.7,196.6 344.9,201.1 351.8,212.9 					"/>
				</g>
				<path class="st3" d="M347.3,249.5"/>
				<g>
					<g>
						<path class="st5" d="M355.5,172.1c0,0-3.2-2.9-7.2,3c-4,5.9-6.6,8.7-6.6,8.7l-15-8.3l-1.6,3.2c0,0,13.5,15.5,17.8,14.4
							C347.3,192,365.2,173.1,355.5,172.1z"/>
						<path class="st14" d="M325.2,178.7c0,0-7.3-5.6-3.8-4.6c1.6,0.4,3,1.6,3.5,1.1c0.5-0.5-0.6-0.9-0.8-2c-0.2-1,3.2,2.7,3.2,2.7
							L325.2,178.7z"/>
						<g class="st15">
							<polygon points="330.3,180.3 336.6,186.1 329.5,182.8 							"/>
						</g>
						<g class="st15">
							<g>
								<polygon points="341.3,189.4 348.8,182.6 348.8,184.4 345,190.4 								"/>
							</g>
						</g>
						<polygon class="st5" points="324.3,178.6 325.9,179.8 328.7,176.3 327.2,175.1 						"/>
					</g>
					<path class="st5" d="M352.4,169.7c2.5-0.9,9.6-1.5,10.7,4.6c1,5.6-1.1,10.4-1.9,14.3c-0.6,2.8-0.9,7-0.9,7s-4.7,5.5-13.3,3
						l0.6-9.4l0.6-5.2c-0.5-5.9-0.3-6.7,0.7-9.6c0.4-1.2,2.1-3.9,3.2-4.5C352.1,169.8,352.2,169.8,352.4,169.7z"/>
					<path class="st3" d="M348.5,179.4l-0.7-0.6c0-3.8,1.6-9,7.7-9.5h0.2C347.8,170.9,348.5,179.3,348.5,179.4z"/>
					<path class="st14" d="M354.6,159.9l4.5,0l-0.5,9.4c0,0.3-0.1,0.6-0.3,0.8c-1.8,1.3-3.4,0.7-3.4,0.7c-1.5-0.4-0.4-1.1-0.2-2.8
						L354.6,159.9z"/>
					<path class="st14" d="M354,157.7c-2.2,2.8-2.4,5.2-2.4,7.7c0.1,3.2,4.3,3.2,7,1.5c2.4-1.5,3.5-4.2,2.9-6.8
						C360.9,156.8,356.4,154.8,354,157.7z"/>
					<g class="st15">
						<polygon points="354.4,168.9 357,167.8 354.6,168.1 						"/>
					</g>
					<path class="st14" d="M352.6,160.8c0,0-0.9,0.7-1.9,2c0,0,0.4,0.8,1.2,1.1L352.6,160.8z"/>
					<path class="st12" d="M362.1,159.6c-0.2-4.3-7.7-4.3-8.6-3.6c-1.8,1.4-0.3,2.9-0.3,2.9l0.4-0.3c0.1,0,0.1-0.1,0.2-0.1
						c1.1,0.2,5,1,3.8,4c-0.3,0.8,0.4,1.1,1.2,1.2c0.1,0.9,0.1,1.9-0.1,2.9C358.5,167.5,362.4,166.7,362.1,159.6z"/>
					<g>
						<g>
							<path class="st3" d="M330.6,184l-1.1,1.2L314.7,172c-0.3-0.2-0.3-0.6-0.1-0.9l0.7-0.7L330.6,184z"/>
						</g>
						<path class="st1" d="M330,179.6c0.4,0.4,0.7,0.9,0.7,1.5l0,2.9l-15.4-13.6l4.4,0.7c0.5,0.1,1,0.3,1.4,0.7L330,179.6z"/>
					</g>
					<path class="st14" d="M356.1,164.4c0.3,0.5,1.2,0.5,2,0c0.8-0.5,1.1-1.3,0.7-1.9c-0.3-0.5-1.2-0.5-2,0
						C356.1,163,355.8,163.9,356.1,164.4z"/>
					<path class="st3" d="M360.3,198.1c0,0,0.3-6.7,0.9-9.5c0.3-1.6,0.9-3.3,1.3-5.1c-5.6-0.5-11-2.8-14.7-4.7c0,1.2,0,2.8,0.3,5.3
						l-1.2,5.2l-1.6,9.6C354,201.3,360.3,198.1,360.3,198.1z"/>
					<path class="st16" d="M354.6,170"/>
				</g>
				<path class="st3" d="M357.5,204.1l-2.9-0.8c3.8-13.9,5.6-26.9,4-28.4c-1-0.9-1.7-0.9-2.1-0.8c-2.2,0.6-4.3,5.4-5,7.7l-2.3-0.9
					c0.3-0.9,2.1-8.5,6.5-9.7c1.2-0.3,3-0.3,5,1.4C364.6,176.2,359.8,195.8,357.5,204.1z"/>
				<g>
					<path class="st5" d="M356.7,173.1c0,0-3,0-6.2,6.3c-3.2,6.3-4.9,8-4.9,8l-15.1-6.7l-2.6,3.4c0,0,16.1,13.8,19.9,11.4
						C354.9,191.3,366.5,172.9,356.7,173.1z"/>
					<path class="st14" d="M328,184.2c0,0-3.4,0.3-4.3-1.8c-0.5-1.3-2.4-4.2-0.5-2.9c1.1,0.8,2.7,2.4,3.2,1.8
						c0.5-0.6-1.9-0.9-1.3-2.2l4,2.3L328,184.2z"/>
				</g>
				<polygon class="st5" points="326.8,185.1 328.5,186 331.4,180.9 329.7,180 				"/>
				<g>
					<g>
						<path class="st5" d="M362.6,161.1l-9.4-4.8c1.3-2.6,4.5-3.6,7.1-2.3C362.9,155.3,364,158.5,362.6,161.1"/>
					</g>
					<path class="st8" d="M358.4,153.4c0.7,0.1,1.3,0.2,1.9,0.6c2.6,1.3,3.6,4.5,2.3,7.1l-2.5-1.2
						C361.2,157.5,360.4,154.8,358.4,153.4z"/>
					
						<rect x="356.4" y="152.1" transform="matrix(0.4283 -0.9036 0.9036 0.4283 61.1341 413.2093)" class="st8" width="1.5" height="12.3"/>
				</g>
			</g>
			<g>
				<g>
					<polygon class="st9" points="337.4,248.9 319.6,248.9 325.4,219.6 331.6,219.6 					"/>
					<rect x="315.4" y="247.5" class="st9" width="25.4" height="3"/>
				</g>
				<polygon class="st9" points="337.4,248.9 319.6,248.9 325.4,219.6 331.6,219.6 				"/>
				<polygon class="st1" points="322.9,232 334.1,232 333.2,227.4 323.8,227.4 				"/>
				<polygon class="st1" points="320.8,242.8 336.2,242.8 335.3,238.2 321.7,238.2 				"/>
			</g>
			<g>
				<g>
					<path class="st3" d="M204.2,254.9c0.4,0,0.7-0.3,0.8-0.6l13.5-65.8c0.1-0.4-0.2-0.8-0.6-0.9c-0.4-0.1-0.8,0.2-0.9,0.6
						L203.4,254c-0.1,0.4,0.2,0.8,0.6,0.9C204.1,254.9,204.1,254.9,204.2,254.9z"/>
					<path class="st13" d="M217,194.8h19.5c0.4,0,0.8-0.3,0.8-0.8c0-0.4-0.3-0.8-0.8-0.8H217c-0.4,0-0.8,0.3-0.8,0.8
						C216.3,194.5,216.6,194.8,217,194.8z"/>
					<path class="st13" d="M215.1,203.3h19.5c0.4,0,0.8-0.3,0.8-0.8c0-0.4-0.3-0.8-0.8-0.8h-19.5c-0.4,0-0.8,0.3-0.8,0.8
						C214.4,203,214.7,203.3,215.1,203.3z"/>
					<path class="st13" d="M213.5,211.8H233c0.4,0,0.8-0.3,0.8-0.8c0-0.4-0.3-0.8-0.8-0.8h-19.5c-0.4,0-0.8,0.3-0.8,0.8
						C212.7,211.4,213.1,211.8,213.5,211.8z"/>
					<path class="st13" d="M211.7,220.2h19.5c0.4,0,0.8-0.3,0.8-0.8c0-0.4-0.3-0.8-0.8-0.8h-19.5c-0.4,0-0.8,0.3-0.8,0.8
						C211,219.9,211.3,220.2,211.7,220.2z"/>
					<path class="st13" d="M210.1,228.7h19.5c0.4,0,0.8-0.3,0.8-0.8c0-0.4-0.3-0.8-0.8-0.8h-19.5c-0.4,0-0.8,0.3-0.8,0.8
						C209.3,228.3,209.6,228.7,210.1,228.7z"/>
					<path class="st13" d="M208.4,237.1h19.5c0.4,0,0.8-0.3,0.8-0.8c0-0.4-0.3-0.8-0.8-0.8h-19.5c-0.4,0-0.8,0.3-0.8,0.8
						C207.6,236.8,208,237.1,208.4,237.1z"/>
					<path class="st13" d="M206.7,245.6h19.5c0.4,0,0.8-0.3,0.8-0.8c0-0.4-0.3-0.8-0.8-0.8h-19.5c-0.4,0-0.8,0.3-0.8,0.8
						C206,245.3,206.3,245.6,206.7,245.6z"/>
					<path class="st3" d="M225,254.9c0.4,0,0.7-0.3,0.8-0.6l13.5-65.8c0.1-0.4-0.2-0.8-0.6-0.9c-0.4-0.1-0.8,0.2-0.9,0.6L224.2,254
						c-0.1,0.4,0.2,0.8,0.6,0.9C224.9,254.9,224.9,254.9,225,254.9z"/>
				</g>
			</g>
			<g>
				<g>
					<line class="st17" x1="289.1" y1="146.3" x2="293.1" y2="156.4"/>
					<polyline class="st18" points="278.6,143.9 279.9,146.1 288.9,145.8 295.6,139.9 294.6,136.6 					"/>
					<line class="st18" x1="295.3" y1="136" x2="277.8" y2="143.7"/>
					<path class="st8" d="M292.9,140.6l-10.3,4.3c-1.5,0.6-3.2-0.1-3.8-1.6l0,0c-0.6-1.5,0.1-3.2,1.6-3.8l10.3-4.3
						c1.5-0.6,3.2,0.1,3.8,1.6l0,0C295.1,138.2,294.4,139.9,292.9,140.6z"/>
					<path class="st5" d="M282,143.7l10.3-4.3c1.3-0.6,2-2,1.7-3.4c-0.8-1-2.2-1.3-3.4-0.8l-10.3,4.3c-1.3,0.6-2,2-1.7,3.4
						C279.5,143.9,280.8,144.2,282,143.7z"/>
				</g>
				<g>
					<g>
						<polygon class="st3" points="279.8,237.8 266.4,237.8 264,219.6 282.2,219.6 						"/>
						<path class="st19" d="M265.2,220c0-4.4,3.5-7.9,7.9-7.9c4.4,0,7.9,3.5,7.9,7.9"/>
					</g>
					<path class="st5" d="M278.5,220.2c0.1-0.1,0.1-0.3,0.1-0.6h-11c-0.2,1.2,0.3,2.6,0.8,2.7c0.6,0.1,0.9-1.9,1.6-1.8
						c0.6,0,1.4,1.3,0.8,4.4c-0.5,2.7,1.2,3.3,1.4,3.3c1.7-0.3,0.6-6.6,2.1-7c0.6-0.2,1.1,0.7,1.9,0.4c0.6-0.3,0.7-1,1.4-1.2
						C278.1,220.1,278.3,220.4,278.5,220.2z"/>
				</g>
				<g>
					<g>
						<g>
							<path class="st5" d="M290,203.2l8.6,1.5l6.5-3.3c0,0-0.6-4.6-0.6-5.8c0.1-3.1,1.6-9.9-0.6-14.9c-1.6-3.6-4.6-2-8.3-0.8
								l-4.2,0.5c0,0-6.8-4.1-2,14.8C289.7,197.4,290,203.2,290,203.2z"/>
							<g>
								<path class="st10" d="M293.6,166.8c-1.7,1.7-2.4,4.4-2.3,6.9c0.1,2.7,4.2,2.8,6.5,1.4c2-1.3,3.4-4,2.8-6.2
									C299.9,166.1,295.8,164.5,293.6,166.8z"/>
								<path class="st10" d="M292.7,168c0,0-1,1.2-1.9,1.5c0,0,0.2,0.8,0.9,1.1L292.7,168z"/>
							</g>
							<g>
								<path class="st5" d="M287.5,182l-2.2,8.3l-1.4,4.3l-8.3,14.6l2.6,1.7l10.5-14.8l1.6-4.6l6.2-12.2c0.5-1.4-2.5-1.4-4-1.9
									C291.2,177.1,288.5,179,287.5,182z"/>
								<path class="st10" d="M276,208.6c0,0-3.2,3.5-1,3.2c1.5-0.2,0.4-0.4,0.4-0.4s-2.2,1.9-1.2,1.9c0.9,0,2.9,0.8,3.4-0.5
									c0.6-1.6,0.9-2.5,0.9-2.5L276,208.6z"/>
								
									<rect x="276.6" y="206.8" transform="matrix(0.5629 -0.8265 0.8265 0.5629 -51.4421 320.8766)" class="st5" width="2" height="4.5"/>
							</g>
							<g>
								<g>
									<polygon class="st5" points="297.2,171.8 291.6,155.9 294.4,154.7 302.2,171 303,175.8 297.8,176.3 									"/>
									<path class="st5" d="M302.2,187.3c-1.5,0.2-2.9-0.8-3.1-2.3l-1.2-8.8l5.2-0.5l1.7,7.7C304.9,185,303.6,187.1,302.2,187.3z"
										/>
								</g>
								<path class="st10" d="M292.4,156.2c0,0-3.2-3.4-1.9-4.1l1,1.6c0,0-1.2-4.2-0.3-4c0.9,0.2,3,1.4,2.7,2.7
									c-0.2,1.6-0.4,3-0.4,3L292.4,156.2z"/>
								
									<rect x="292.3" y="154.1" transform="matrix(0.3711 0.9286 -0.9286 0.3711 329.3609 -174.2716)" class="st5" width="2" height="3.9"/>
							</g>
							<polygon class="st10" points="292.9,173.8 293.3,182.7 298.2,181.1 295.9,173 							"/>
							<path class="st3" d="M294.5,199.2c0.3-10.2-1-18.3-1.9-21.6c-0.6-0.2-1.4,0-2.2,0.5c0.8,3.1,2.1,10.4,1.8,21L294.5,199.2z"/>
						</g>
						<g>
							<g>
								<path class="st3" d="M306.5,208.9c1.1-7.8-1.9-13-1.9-13c-5,2.8-14.9,2.2-14.9,2.2l-1.4,13.1l-0.8,14.5
									c0,0,0.3,8.1,3.7,18.9l3.9-0.6c0,0,0.7-7.7-0.6-18.6c0,0,1.9-7.8,3-11.9c0.1-0.3,1.2-0.7,1.3-0.9
									C298.8,212.6,304.5,212.3,306.5,208.9z"/>
								<path class="st3" d="M299.9,244.5l3.4-0.5c0,0,1.6-7.9,0-18.4c0,0,2.7-5.9,2.9-15.3c0.1-0.5,0.2-0.9,0.2-1.4
									c-1.9,3.4-7.7,3.7-7.7,3.7l-2.5,13.7C296.3,226.4,297.3,233,299.9,244.5z"/>
								<path class="st13" d="M300.7,212.4c-1.1,0.2-1.9,0.3-1.9,0.3l-2.5,13.7c0,0,1,6.5,3.6,18c0.4-0.3,0.7-0.6,0.9-1
									c0.3-0.8-0.2-1.3-0.8-3.8c-0.4-1.6-0.2-1.3-0.8-4.5c-0.5-2.4-0.7-3.6-1-4.2c-0.6-1.7-1.3-2.4-1-3.3c0.3-0.9,1.2-1,1.2-1.8
									c0-0.6-0.6-0.9-1-1.5c-0.8-1.4,0.8-3.7,1.2-4.4C299.7,218.5,300.6,216.2,300.7,212.4z"/>
							</g>
							<polygon class="st10" points="291.2,244.6 291.9,247 294.6,246.8 294.6,244.1 							"/>
							<g>
								<path class="st5" d="M287,250.6c0,0,0-1.6,3-2.1c1.6-0.3,0.8-1.4,0.8-1.4l3-0.9l-2.8,5L287,250.6z"/>
								<g>
									<path class="st3" d="M294.3,246.1c-2,0-1.9,1.7-2.2,2.8l0,0c0,0-1.4,2-4.4,1.8c0.7,0.1,1.9,0.3,2.8,0.4
										c0.9,0.1,1.9,0.1,2.7-0.2l1.7-0.5c1-0.5,2-4.2-0.5-4.3C294.4,246.1,294.3,246.1,294.3,246.1z"/>
									<path class="st8" d="M287.2,250.6c0.2,0,0.3,0,0.5,0.1C287.1,250.6,286.8,250.5,287.2,250.6z"/>
								</g>
							</g>
							<polygon class="st10" points="299.9,244.5 300.6,246.9 303.3,246.7 303.3,244 							"/>
							<g>
								<path class="st5" d="M295.7,250.5c0,0,0-1.6,3-2.1c1.6-0.3,0.8-1.4,0.8-1.4l3-0.9l-2.8,5L295.7,250.5z"/>
								<g>
									<path class="st3" d="M303,246c-2,0-1.9,1.7-2.2,2.8l0,0c0,0-1.4,2-4.4,1.8c0.7,0.1,1.9,0.3,2.8,0.4
										c0.9,0.1,1.9,0.1,2.7-0.2l1.7-0.5c1-0.5,2-4.2-0.5-4.3C303.1,246,303,246,303,246z"/>
									<path class="st8" d="M295.9,250.5c0.2,0,0.3,0,0.5,0.1C295.8,250.5,295.5,250.4,295.9,250.5z"/>
								</g>
							</g>
						</g>
						
							<rect x="290.4" y="243.1" transform="matrix(0.9941 -0.1083 0.1083 0.9941 -24.715 33.1578)" class="st3" width="5.1" height="2.1"/>
						
							<rect x="299.1" y="242.6" transform="matrix(0.9941 -0.1083 0.1083 0.9941 -24.6094 34.0967)" class="st3" width="5.1" height="2.1"/>
						<path class="st1" d="M292.8,177.1l-0.1,1.5c0,0,2,0.7,3.2,0.3c1.2-0.4,1.7-1.5,1.7-1.5l-0.4-1.1
							C297.2,176.3,296.1,178,292.8,177.1z"/>
						<path class="st12" d="M293.8,164.7c0,0-2.9,2.6,0.7,5.3c0,0,1.3,1-0.6,3.3c-0.4,0.5-0.4,1.2,0,1.6c1.2,1.4,3.8,3.4,6.5-0.9
							c1.3-2,1.4-4.3,0.4-5.7c-1-1.3-2-2.1-3.5-2.6C295.8,165.2,295,165.4,293.8,164.7z"/>
						<path class="st12" d="M293.8,173.3c-3.4,3-3.2,7-3.2,7.6c0,3.3,3.3,5.9,3.4,6.6c0.2,2.1-3.2,6.5-2.7,8.7
							c0.7,3.2,6.3,4.3,11.9,2c6.3-2.6,7.1-11,1.5-16.8c-2.5-2.6-1.7-7.6-2.2-11.2c-0.3-2.2-0.9,0.1-2-1.5c-1.6-2.4-5.5-3.3-6.1-2.5
							c-0.6,0.7,1.9,2.5,1.4,4.6C295.5,171.9,295.1,172.1,293.8,173.3z"/>
						<path class="st10" d="M295.5,170.8c0.2,0.4,0,1-0.6,1.3c-0.5,0.3-1.2,0.2-1.4-0.3c-0.2-0.4,0-1,0.6-1.3
							C294.6,170.2,295.3,170.4,295.5,170.8z"/>
					</g>
				</g>
				<g>
					<g>
						<path class="st5" d="M302.2,171.8l-8.3-6.6c1.8-2.3,5.1-2.7,7.4-0.9C303.6,166.2,304,169.5,302.2,171.8"/>
					</g>
					<path class="st8" d="M299.5,163.4c0.6,0.2,1.2,0.5,1.8,0.9c2.3,1.8,2.7,5.1,0.9,7.4l-2.2-1.7
						C301.4,168,301.2,165.2,299.5,163.4z"/>
					
						<rect x="296.6" y="161.8" transform="matrix(0.598 -0.8015 0.8015 0.598 -15.0959 305.8296)" class="st8" width="1.5" height="12.3"/>
				</g>
			</g>
		</g>
		<g>
			<rect x="19.9" y="63.4" class="st20" width="388.2" height="20.3"/>
			<path class="st3" d="M144.8,75.2H142V74c-0.5,0.8-1.5,1.3-2.7,1.3c-2.1,0-3.5-1.4-3.5-3.8v-5.2h2.7v4.9c0,1.2,0.7,1.9,1.7,1.9
				c1.1,0,1.7-0.7,1.7-1.9v-4.9h2.7V75.2z"/>
			<path class="st3" d="M152.9,70.3c0-1.2-0.7-1.9-1.7-1.9c-1,0-1.7,0.7-1.7,1.9v4.9h-2.7v-8.9h2.7v1.2c0.5-0.8,1.5-1.3,2.7-1.3
				c2.1,0,3.4,1.4,3.4,3.8v5.2h-2.7V70.3z"/>
			<path class="st3" d="M160.9,66.1c1.2,0,2.2,0.5,2.8,1.4v-4.1h2.7v11.8h-2.7v-1.3c-0.5,0.8-1.4,1.4-2.8,1.4
				c-2.2,0-3.9-1.8-3.9-4.6C157,67.9,158.7,66.1,160.9,66.1z M161.7,68.5c-1,0-2,0.8-2,2.2c0,1.4,0.9,2.2,2,2.2c1,0,2-0.8,2-2.2
				S162.7,68.5,161.7,68.5z"/>
			<path class="st3" d="M172.3,75.3c-2.6,0-4.5-1.8-4.5-4.6s1.9-4.6,4.5-4.6c2.6,0,4.4,1.7,4.4,4.4c0,0.3,0,0.5,0,0.8h-6.2
				c0.1,1.2,0.8,1.7,1.7,1.7c0.8,0,1.2-0.4,1.4-0.9h2.9C176.1,74,174.6,75.3,172.3,75.3z M170.6,69.9h3.4c0-1-0.8-1.5-1.7-1.5
				C171.4,68.3,170.7,68.9,170.6,69.9z"/>
			<path class="st3" d="M181,75.2h-2.7v-8.9h2.7v1.5c0.6-0.9,1.6-1.6,2.8-1.6v2.9H183c-1.3,0-2,0.4-2,2V75.2z"/>
			<path class="st3" d="M192.4,66.1c2.2,0,3.8,1.2,4.3,3.4h-2.9c-0.2-0.6-0.7-1-1.4-1c-1,0-1.6,0.8-1.6,2.3s0.7,2.3,1.6,2.3
				c0.8,0,1.2-0.4,1.4-1h2.9c-0.5,2.1-2,3.4-4.3,3.4c-2.6,0-4.5-1.8-4.5-4.6C187.9,67.9,189.8,66.1,192.4,66.1z"/>
			<path class="st3" d="M202.2,75.3c-2.6,0-4.6-1.8-4.6-4.6s2-4.6,4.6-4.6c2.6,0,4.6,1.8,4.6,4.6S204.8,75.3,202.2,75.3z M202.2,73
				c1,0,1.9-0.7,1.9-2.2c0-1.5-0.9-2.2-1.9-2.2c-1,0-1.9,0.7-1.9,2.2C200.4,72.2,201.2,73,202.2,73z"/>
			<path class="st3" d="M214.5,70.3c0-1.2-0.7-1.9-1.7-1.9c-1,0-1.7,0.7-1.7,1.9v4.9h-2.7v-8.9h2.7v1.2c0.5-0.8,1.5-1.3,2.7-1.3
				c2.1,0,3.4,1.4,3.4,3.8v5.2h-2.7V70.3z"/>
			<path class="st3" d="M222.8,75.3c-2.4,0-4-1.3-4.1-3.1h2.7c0.1,0.6,0.6,1,1.4,1c0.7,0,1.1-0.3,1.1-0.7c0-1.4-4.9-0.4-4.9-3.7
				c0-1.5,1.3-2.8,3.6-2.8c2.3,0,3.6,1.3,3.8,3h-2.5c-0.1-0.6-0.5-1-1.3-1c-0.6,0-1,0.3-1,0.7c0,1.4,4.8,0.4,4.9,3.7
				C226.4,74.2,225,75.3,222.8,75.3z"/>
			<path class="st3" d="M228.5,68.5h-1.1v-2.3h1.1v-2.2h2.7v2.2h1.8v2.3h-1.8v3.6c0,0.5,0.2,0.8,0.8,0.8h1v2.3h-1.4
				c-1.9,0-3.2-0.8-3.2-3.1V68.5z"/>
			<path class="st3" d="M237.3,75.2h-2.7v-8.9h2.7v1.5c0.6-0.9,1.6-1.6,2.8-1.6v2.9h-0.8c-1.3,0-2,0.4-2,2V75.2z"/>
			<path class="st3" d="M250.2,75.2h-2.7V74c-0.5,0.8-1.5,1.3-2.7,1.3c-2.1,0-3.5-1.4-3.5-3.8v-5.2h2.7v4.9c0,1.2,0.7,1.9,1.7,1.9
				c1.1,0,1.7-0.7,1.7-1.9v-4.9h2.7V75.2z"/>
			<path class="st3" d="M256.1,66.1c2.2,0,3.8,1.2,4.3,3.4h-2.9c-0.2-0.6-0.7-1-1.4-1c-1,0-1.6,0.8-1.6,2.3s0.7,2.3,1.6,2.3
				c0.8,0,1.2-0.4,1.4-1h2.9c-0.5,2.1-2,3.4-4.3,3.4c-2.6,0-4.5-1.8-4.5-4.6C251.6,67.9,253.5,66.1,256.1,66.1z"/>
			<path class="st3" d="M262.3,68.5h-1.1v-2.3h1.1v-2.2h2.7v2.2h1.8v2.3H265v3.6c0,0.5,0.2,0.8,0.8,0.8h1v2.3h-1.4
				c-1.9,0-3.2-0.8-3.2-3.1V68.5z"/>
			<path class="st3" d="M268.1,63.9c0-0.8,0.7-1.5,1.6-1.5c1,0,1.6,0.7,1.6,1.5c0,0.8-0.7,1.5-1.6,1.5
				C268.8,65.3,268.1,64.7,268.1,63.9z M268.4,66.3h2.7v8.9h-2.7V66.3z"/>
			<path class="st3" d="M277.1,75.3c-2.6,0-4.6-1.8-4.6-4.6s2-4.6,4.6-4.6c2.6,0,4.6,1.8,4.6,4.6S279.8,75.3,277.1,75.3z M277.1,73
				c1,0,1.9-0.7,1.9-2.2c0-1.5-0.9-2.2-1.9-2.2c-1,0-1.9,0.7-1.9,2.2C275.3,72.2,276.1,73,277.1,73z"/>
			<path class="st3" d="M289.4,70.3c0-1.2-0.7-1.9-1.7-1.9c-1,0-1.7,0.7-1.7,1.9v4.9h-2.7v-8.9h2.7v1.2c0.5-0.8,1.5-1.3,2.7-1.3
				c2.1,0,3.4,1.4,3.4,3.8v5.2h-2.7V70.3z"/>
		</g>
		<g>
			<rect x="19.9" y="43.1" class="st20" width="388.2" height="20.3"/>
			<path class="st3" d="M172.2,43.7h8.7v2.2h-3v9h-2.7v-9h-3V43.7z"/>
			<path class="st3" d="M182.3,43.1h2.7v4.1c0.5-0.8,1.5-1.3,2.8-1.3c2,0,3.4,1.4,3.4,3.8v5.2h-2.7v-4.9c0-1.2-0.7-1.9-1.7-1.9
				c-1,0-1.7,0.7-1.7,1.9v4.9h-2.7V43.1z"/>
			<path class="st3" d="M192.8,43.6c0-0.8,0.7-1.5,1.6-1.5c1,0,1.6,0.7,1.6,1.5c0,0.8-0.7,1.5-1.6,1.5
				C193.5,45.1,192.8,44.4,192.8,43.6z M193.1,46h2.7v8.9h-2.7V46z"/>
			<path class="st3" d="M201.4,55.1c-2.4,0-4-1.3-4.1-3.1h2.7c0.1,0.6,0.6,1,1.4,1c0.7,0,1.1-0.3,1.1-0.7c0-1.4-4.9-0.4-4.9-3.7
				c0-1.5,1.3-2.8,3.6-2.8c2.3,0,3.6,1.3,3.8,3h-2.5c-0.1-0.6-0.5-1-1.3-1c-0.6,0-1,0.3-1,0.7c0,1.4,4.8,0.4,4.9,3.7
				C205,53.9,203.7,55.1,201.4,55.1z"/>
			<path class="st3" d="M213.7,55.1c-2.4,0-4-1.3-4.1-3.1h2.7c0.1,0.6,0.6,1,1.4,1c0.7,0,1.1-0.3,1.1-0.7c0-1.4-4.9-0.4-4.9-3.7
				c0-1.5,1.3-2.8,3.6-2.8c2.3,0,3.6,1.3,3.8,3h-2.5c-0.1-0.6-0.5-1-1.3-1c-0.6,0-1,0.3-1,0.7c0,1.4,4.8,0.4,4.9,3.7
				C217.4,53.9,216,55.1,213.7,55.1z"/>
			<path class="st3" d="M218.8,43.6c0-0.8,0.7-1.5,1.6-1.5c1,0,1.6,0.7,1.6,1.5c0,0.8-0.7,1.5-1.6,1.5
				C219.4,45.1,218.8,44.4,218.8,43.6z M219,46h2.7v8.9H219V46z"/>
			<path class="st3" d="M224.2,48.3h-1.1V46h1.1v-2.2h2.7V46h1.8v2.3h-1.8v3.6c0,0.5,0.2,0.8,0.8,0.8h1v2.3h-1.4
				c-1.9,0-3.2-0.8-3.2-3.1V48.3z"/>
			<path class="st3" d="M234.2,55.1c-2.6,0-4.5-1.8-4.5-4.6s1.9-4.6,4.5-4.6c2.6,0,4.5,1.7,4.5,4.4c0,0.3,0,0.5,0,0.8h-6.2
				c0.1,1.2,0.8,1.7,1.7,1.7c0.8,0,1.2-0.4,1.4-0.9h2.9C238,53.7,236.4,55.1,234.2,55.1z M232.4,49.6h3.4c0-1-0.8-1.5-1.7-1.5
				C233.3,48.1,232.6,48.6,232.4,49.6z"/>
			<path class="st3" d="M243.2,43.6c0-0.8,0.7-1.5,1.6-1.5c1,0,1.6,0.7,1.6,1.5c0,0.8-0.7,1.5-1.6,1.5
				C243.9,45.1,243.2,44.4,243.2,43.6z M243.5,46h2.7v8.9h-2.7V46z"/>
			<path class="st3" d="M251.9,55.1c-2.4,0-4-1.3-4.1-3.1h2.7c0.1,0.6,0.6,1,1.4,1c0.7,0,1.1-0.3,1.1-0.7c0-1.4-4.9-0.4-4.9-3.7
				c0-1.5,1.3-2.8,3.6-2.8c2.3,0,3.6,1.3,3.8,3h-2.5c-0.1-0.6-0.5-1-1.3-1c-0.6,0-1,0.3-1,0.7c0,1.4,4.8,0.4,4.9,3.7
				C255.5,53.9,254.1,55.1,251.9,55.1z"/>
		</g>
	</g>
	<g>
		<g id="XMLID_29_">
			<g id="XMLID_48_">
				<path id="XMLID_56_" class="st21" d="M263.1,165.8c-0.1,0.2-0.2,0.5-0.2,0.7l-0.2,0c-0.1-0.1-0.2-0.1-0.3-0.1
					c-0.1,0.1-0.2,0.2-0.1,0.3c0.1,0.1,0.2,0.2,0.3,0.1c0,0,0,0,0.1,0l0.2,0c0,0.2,0,0.5,0.1,0.7l0.3-0.1c-0.1-0.5,0-1.1,0.2-1.6
					L263.1,165.8z"/>
				<path id="XMLID_55_" class="st21" d="M264.8,164.1c-0.1,0-0.1,0.1-0.2,0.1l-0.1-0.2c0-0.1,0.1-0.2,0-0.3
					c-0.1-0.1-0.3-0.2-0.4-0.1c-0.1,0.1-0.2,0.3-0.1,0.4c0,0.1,0.1,0.1,0.2,0.2l0.1,0.2c-0.3,0.1-0.5,0.3-0.7,0.5l0.2,0.2
					c0.3-0.3,0.6-0.5,1-0.7c0.2-0.1,0.4-0.1,0.6-0.2l0-0.3C265.3,164,265,164,264.8,164.1z"/>
				<path id="XMLID_54_" class="st21" d="M267.7,164.1c0.1-0.1,0.2-0.2,0.1-0.3c-0.1-0.1-0.2-0.2-0.3-0.1c-0.1,0.1-0.2,0.2-0.1,0.3
					l-0.1,0.2c-0.2-0.1-0.5-0.2-0.7-0.2l-0.1,0.3c0.5,0.1,1,0.4,1.4,0.7l0.2-0.2c-0.2-0.2-0.4-0.3-0.6-0.4L267.7,164.1
					C267.7,164.1,267.7,164.1,267.7,164.1z"/>
				<path id="XMLID_53_" class="st21" d="M266.1,168c-0.1,0.1-0.3,0.1-0.4,0.2c-0.3,0.1-0.7,0.2-1,0.3c-0.2,0-0.3,0.1-0.5,0.1
					c0.7,0.6,1.6,0.7,2.5,0.4c1.1-0.4,1.7-1.5,1.6-2.6c-0.2,0.3-0.4,0.5-0.8,0.8C267.1,167.5,266.7,167.8,266.1,168z"/>
				<path id="XMLID_49_" class="st21" d="M265.1,164.7c-1.3,0.5-1.9,1.9-1.4,3.2c0.1,0.2,0.1,0.3,0.2,0.5c0.3,0.1,1.2-0.1,2.1-0.5
					c1.1-0.5,1.9-1.1,2.2-1.8c0-0.1-0.1-0.1-0.1-0.2C267.5,164.7,266.2,164.2,265.1,164.7z M265.2,167.5c-0.4,0.2-0.8,0-1-0.4
					c-0.2-0.4,0-0.8,0.4-1c0.4-0.2,0.8,0,1,0.4C265.8,166.9,265.6,167.3,265.2,167.5z M266.9,166.4c-0.3,0.1-0.6,0-0.7-0.3
					c-0.1-0.3,0-0.6,0.3-0.7c0.3-0.1,0.6,0,0.7,0.3C267.3,166,267.1,166.3,266.9,166.4z"/>
			</g>
			<path id="XMLID_46_" class="st21" d="M271.4,163c-0.1,0-0.4,0-0.6,0.1c-0.2,0.1-0.3,0.3-0.2,0.5l0.1,0.3l0.8-0.3l0.3,0.7
				l-0.8,0.3l0.8,2.1l-0.7,0.3l-0.8-2.1l-0.5,0.2l-0.3-0.7l0.5-0.2l-0.1-0.3c-0.2-0.6-0.1-1.2,0.6-1.4c0.2-0.1,0.5-0.1,0.6-0.1
				L271.4,163z"/>
			<path id="XMLID_44_" class="st21" d="M273.7,163.6c-0.1,0-0.1,0-0.2,0.1c-0.3,0.1-0.5,0.4-0.3,0.8l0.6,1.5l-0.7,0.3l-1.1-2.7
				l0.7-0.3l0.1,0.3c0.1-0.3,0.3-0.5,0.6-0.7c0.2-0.1,0.3-0.1,0.5,0L273.7,163.6z"/>
			<path id="XMLID_41_" class="st21" d="M276.9,163.2c0,0.1,0.1,0.2,0.1,0.3l-1.9,0.7c0.2,0.4,0.6,0.4,0.9,0.3
				c0.2-0.1,0.5-0.3,0.6-0.5l0.6,0.3c-0.2,0.4-0.5,0.7-1,0.9c-0.8,0.3-1.6,0-2-0.9c-0.3-0.9,0-1.7,0.8-2
				C275.8,162,276.5,162.3,276.9,163.2z M274.8,163.7l1.2-0.5c-0.2-0.3-0.5-0.4-0.8-0.3C274.9,163,274.8,163.3,274.8,163.7z"/>
			<path id="XMLID_38_" class="st21" d="M279.8,162c0,0.1,0.1,0.2,0.1,0.3l-1.9,0.7c0.2,0.4,0.6,0.4,0.9,0.3
				c0.2-0.1,0.5-0.3,0.6-0.5l0.6,0.3c-0.2,0.4-0.5,0.7-1,0.9c-0.8,0.3-1.6,0-2-0.9c-0.3-0.9,0-1.7,0.8-2
				C278.7,160.8,279.4,161.2,279.8,162z M277.7,162.5l1.2-0.5c-0.2-0.3-0.5-0.4-0.8-0.3C277.8,161.9,277.7,162.2,277.7,162.5z"/>
			<path id="XMLID_35_" class="st21" d="M282.9,160.8c0.3,0.8,0,1.7-0.8,1.9c-0.4,0.1-0.7,0.1-0.9,0l0.5,1.4l-0.7,0.3l-1.5-3.8
				l0.7-0.3l0.1,0.3c0.1-0.3,0.3-0.5,0.7-0.7C281.8,159.6,282.6,160,282.9,160.8z M280.8,161.7c0.2,0.4,0.6,0.6,1,0.5
				c0.4-0.2,0.6-0.6,0.4-1c-0.2-0.4-0.6-0.6-1-0.5C280.8,160.8,280.6,161.2,280.8,161.7z"/>
			<path id="XMLID_32_" class="st21" d="M283.2,158.1c0.1,0.3,0,0.5-0.3,0.6c-0.3,0.1-0.5,0-0.6-0.3c-0.1-0.3,0-0.6,0.3-0.7
				C282.9,157.7,283.1,157.8,283.2,158.1z M284.5,161.8l-0.7,0.3l-1.1-2.7l0.7-0.3L284.5,161.8z"/>
			<path id="XMLID_30_" class="st21" d="M285.1,159.5l0.6-1.4l0.9-0.3l-0.8,1.8l1.9,0.9l-0.9,0.3l-1.5-0.7l0.4,1.1l-0.7,0.3l-1.6-4
				l0.7-0.3L285.1,159.5z"/>
		</g>
		<g>
			<path class="st21" d="M235.8,180.7l-0.2-0.4c-0.1,0.4-0.3,0.7-0.7,0.8c-0.7,0.3-1.4-0.1-1.7-0.9c-0.3-0.9-0.1-1.6,0.6-1.9
				c0.4-0.1,0.8-0.1,1.1,0.1l-0.6-1.4l0.4-0.2l1.4,3.7L235.8,180.7z M235.5,179.9l-0.5-1.2c-0.2-0.2-0.6-0.3-1-0.1
				c-0.5,0.2-0.7,0.8-0.5,1.4c0.2,0.6,0.7,0.9,1.3,0.7C235.2,180.5,235.5,180.2,235.5,179.9z"/>
			<path class="st21" d="M236.2,178.9c-0.3-0.8,0-1.6,0.8-1.9c0.8-0.3,1.5,0.1,1.8,0.9l0,0.1l-2.2,0.8c0.2,0.5,0.7,0.8,1.3,0.6
				c0.3-0.1,0.6-0.4,0.7-0.7l0.3,0.2c-0.2,0.4-0.5,0.7-0.9,0.8C237.4,180.1,236.6,179.8,236.2,178.9z M237.1,177.4
				c-0.6,0.2-0.7,0.8-0.5,1.2l1.8-0.7C238.2,177.5,237.8,177.1,237.1,177.4z"/>
			<path class="st21" d="M239.5,178.8l0.1-0.4c0.3,0.1,0.7,0.2,1,0c0.4-0.2,0.6-0.4,0.5-0.7c-0.3-0.7-1.8,0.4-2.1-0.6
				c-0.2-0.4,0.1-0.9,0.7-1.2c0.5-0.2,0.8-0.1,1.1,0l-0.1,0.4c-0.2-0.1-0.6-0.2-0.9,0c-0.4,0.1-0.5,0.4-0.4,0.7
				c0.2,0.6,1.7-0.4,2.1,0.6c0.2,0.5,0,1-0.7,1.2C240.3,179,239.9,179,239.5,178.8z"/>
			<path class="st21" d="M241,174.8c-0.1-0.2,0-0.3,0.2-0.4c0.2-0.1,0.3,0,0.4,0.2c0.1,0.2,0,0.3-0.2,0.4
				C241.2,175,241,174.9,241,174.8z M242.4,178.1l-1-2.7l0.4-0.2l1,2.7L242.4,178.1z"/>
			<path class="st21" d="M243.7,178.4l0.1-0.4c0.3,0.2,0.6,0.2,1,0c0.4-0.2,0.8-0.6,0.5-1.1l-0.1-0.4c-0.1,0.3-0.3,0.7-0.7,0.8
				c-0.7,0.3-1.4-0.1-1.7-0.9c-0.3-0.9-0.1-1.6,0.7-1.9c0.4-0.1,0.8-0.1,1.1,0.1l-0.2-0.4l0.4-0.2l1,2.6c0.3,0.9-0.2,1.4-0.8,1.7
				C244.5,178.5,244.2,178.6,243.7,178.4z M245.1,176.2l-0.5-1.2c-0.2-0.2-0.6-0.3-1-0.1c-0.5,0.2-0.7,0.8-0.5,1.4
				c0.2,0.6,0.7,0.9,1.3,0.7C244.8,176.8,245,176.4,245.1,176.2z"/>
			<path class="st21" d="M248.3,175.8l-0.7-1.8c-0.2-0.5-0.5-0.5-0.8-0.4c-0.3,0.1-0.6,0.4-0.6,0.7l0.8,2l-0.4,0.2l-1-2.7l0.4-0.2
				l0.2,0.4c0.1-0.3,0.4-0.7,0.8-0.8c0.6-0.2,1,0,1.2,0.5l0.7,1.9L248.3,175.8z"/>
			<path class="st21" d="M248.8,174.1c-0.3-0.8,0-1.6,0.8-1.9c0.8-0.3,1.5,0.1,1.8,0.9l0,0.1l-2.2,0.8c0.2,0.5,0.7,0.8,1.3,0.6
				c0.3-0.1,0.6-0.4,0.7-0.7l0.3,0.2c-0.2,0.4-0.5,0.7-0.9,0.8C249.9,175.3,249.1,174.9,248.8,174.1z M249.7,172.5
				c-0.6,0.2-0.7,0.8-0.5,1.2l1.8-0.7C250.7,172.7,250.3,172.3,249.7,172.5z"/>
			<path class="st21" d="M254.4,173.4l-0.2-0.4c-0.1,0.4-0.3,0.7-0.7,0.8c-0.7,0.3-1.4-0.1-1.7-0.9c-0.3-0.9-0.1-1.6,0.6-1.9
				c0.4-0.1,0.8-0.1,1.1,0.1l-0.6-1.4l0.4-0.2l1.4,3.7L254.4,173.4z M254.1,172.7l-0.5-1.2c-0.2-0.2-0.6-0.3-1-0.1
				c-0.5,0.2-0.7,0.8-0.5,1.4c0.2,0.6,0.7,0.9,1.3,0.7C253.8,173.3,254,173,254.1,172.7z"/>
			<path class="st21" d="M256.8,172.5l-1.4-3.7l0.4-0.2l0.6,1.4c0.1-0.4,0.4-0.7,0.7-0.8c0.7-0.3,1.4,0.1,1.7,0.9
				c0.3,0.9,0.1,1.6-0.6,1.9c-0.4,0.1-0.8,0.1-1.1-0.1l0.2,0.4L256.8,172.5z M257.9,171.7c0.5-0.2,0.7-0.8,0.5-1.4
				c-0.2-0.6-0.7-0.9-1.3-0.7c-0.3,0.1-0.6,0.5-0.6,0.7l0.5,1.2C257.2,171.8,257.6,171.9,257.9,171.7z"/>
			<path class="st21" d="M260,172c0.1,0,0.2,0,0.2,0c0.2-0.1,0.3-0.2,0.3-0.4l0-0.5l-2.2-2.3l0.5-0.2l1.7,1.9l0-2.5l0.5-0.2
				l-0.1,3.8c0,0.5-0.2,0.7-0.6,0.9c-0.1,0-0.2,0.1-0.3,0.1L260,172z"/>
		</g>
	</g>
</g>
<g>
</g>
<g>
</g>
<g>
</g>
<g>
</g>
<g>
</g>
<g>
</g>
<g>
</g>
<g>
</g>
<g>
</g>
<g>
</g>
<g>
</g>
<g>
</g>
<g>
</g>
<g>
</g>
<g>
</g>
</svg>
